HIERARCHY
ROOT Pelvis
{
	OFFSET 0.000000 0.000000 0.000000
	CHANNELS 6 Xposition Yposition Zposition Xrotation Yrotation Zrotation
	JOINT LeftUpLeg_virtual
	{
		OFFSET 0.000000 0.000000 0.000000
		CHANNELS 3 Xrotation Yrotation Zrotation
		JOINT LeftUpLeg
		{
			OFFSET 18.735201 -5.666702 -4.541200
			CHANNELS 3 Xrotation Yrotation Zrotation
			JOINT LeftLeg
			{
				OFFSET -0.021200 -31.938179 0.493100
				CHANNELS 3 Xrotation Yrotation Zrotation
				JOINT LeftFoot
				{
					OFFSET 0.021200 -31.938179 -4.336299
					CHANNELS 3 Xrotation Yrotation Zrotation
					JOINT LeftToeBase
					{
						OFFSET 0.943001 -26.722000 15.023500
						CHANNELS 3 Xrotation Yrotation Zrotation
						End Site
						{
							OFFSET 0 0 0
						}
					}
				}
			}
		}
	}
	JOINT RightUpLeg_virtual
	{
		OFFSET 0.000000 0.000000 0.000000
		CHANNELS 3 Xrotation Yrotation Zrotation
		JOINT RightUpLeg
		{
			OFFSET -18.735201 -5.666702 -4.541200
			CHANNELS 3 Xrotation Yrotation Zrotation
			JOINT RightLeg
			{
				OFFSET 0.018946 -31.938133 0.493100
				CHANNELS 3 Xrotation Yrotation Zrotation
				JOINT RightFoot
				{
					OFFSET -0.018946 -31.938126 -4.336299
					CHANNELS 3 Xrotation Yrotation Zrotation
					JOINT RightToeBase
					{
						OFFSET -0.943001 -26.722004 15.023500
						CHANNELS 3 Xrotation Yrotation Zrotation
						End Site
						{
							OFFSET 0 0 0
						}
					}
				}
			}
		}
	}
	JOINT Hips_virtual
	{
		OFFSET 0.000000 0.000000 0.000000
		CHANNELS 3 Xrotation Yrotation Zrotation
		JOINT Hips
		{
			OFFSET -0.000000 -0.000000 -0.000000
			CHANNELS 3 Xrotation Yrotation Zrotation
			JOINT Spine
			{
				OFFSET 0.000000 10.199997 -0.299500
				CHANNELS 3 Xrotation Yrotation Zrotation
				JOINT Spine1
				{
					OFFSET 0.000000 11.900002 -1.516600
					CHANNELS 3 Xrotation Yrotation Zrotation
					JOINT Spine2
					{
						OFFSET 0.000000 13.600006 -2.842500
						CHANNELS 3 Xrotation Yrotation Zrotation
						JOINT Neck_virtual
						{
							OFFSET 0.000000 0.000000 0.000000
							CHANNELS 3 Xrotation Yrotation Zrotation
							JOINT Neck
							{
								OFFSET 0.000000 9.624100 -2.890100
								CHANNELS 3 Xrotation Yrotation Zrotation
								JOINT Head
								{
									OFFSET 0.000000 14.068802 -1.351900
									CHANNELS 3 Xrotation Yrotation Zrotation
									End Site
									{
										OFFSET 0 0 0
									}
								}
							}
						}
						JOINT LeftShoulder_virtual
						{
							OFFSET 0.000000 0.000000 0.000000
							CHANNELS 3 Xrotation Yrotation Zrotation
							JOINT LeftShoulder
							{
								OFFSET 15.263000 10.923401 -0.547700
								CHANNELS 3 Xrotation Yrotation Zrotation
								JOINT LeftArm
								{
									OFFSET 25.438599 -2.830597 -13.032500
									CHANNELS 3 Xrotation Yrotation Zrotation
									JOINT LeftForeArm
									{
										OFFSET 29.960503 0.000000 0.000000
										CHANNELS 3 Xrotation Yrotation Zrotation
										JOINT LeftHand
										{
											OFFSET 27.849251 0.000000 0.000000
											CHANNELS 3 Xrotation Yrotation Zrotation
											End Site
											{
												OFFSET 0 0 0
											}
										}
									}
								}
							}
						}
						JOINT RightShoulder_virtual
						{
							OFFSET 0.000000 0.000000 0.000000
							CHANNELS 3 Xrotation Yrotation Zrotation
							JOINT RightShoulder
							{
								OFFSET -15.263000 10.923401 -0.547700
								CHANNELS 3 Xrotation Yrotation Zrotation
								JOINT RightArm
								{
									OFFSET -25.438599 -2.830597 -13.032500
									CHANNELS 3 Xrotation Yrotation Zrotation
									JOINT RightForeArm
									{
										OFFSET -29.960503 0.000000 0.000000
										CHANNELS 3 Xrotation Yrotation Zrotation
										JOINT RightHand
										{
											OFFSET -27.849251 0.000000 0.000000
											CHANNELS 3 Xrotation Yrotation Zrotation
											End Site
											{
												OFFSET 0 0 0
											}
										}
									}
								}
							}
						}
					}
				}
			}
		}
	}
}
MOTION
Frames: 12
Frame Time: 0.03333333
-0.754793 85.741768 1.554932 0.000000 0.000000 0.000000 33.925427 -23.222278 7.579396 -87.081278 2.884974 22.983931 96.110590 4.948746 -4.945972 17.464223 -4.845840 2.760062 0.000000 0.000000 0.000000 33.925427 -23.222278 7.579396 -51.136253 4.782307 5.591910 47.789553 4.441095 0.460782 -17.249238 -2.087210 0.485738 0.000000 0.000000 0.000000 33.925427 -23.222278 7.579396 -0.000002 -0.000002 0.000001 11.661077 3.735736 -2.527081 5.818533 0.259724 -2.809626 0.000000 0.000000 0.000000 -10.931778 0.793506 3.196301 0.041667 1.867142 -1.683900 0.000000 0.000000 0.000000 -10.931778 0.793506 3.196301 1.952237 -2.052954 14.106884 -76.027341 17.447737 -39.907634 -79.531378 -83.559564 -82.552801 0.000000 0.000000 0.000000 -10.931778 0.793506 3.196301 4.985246 19.106681 8.633894 -22.095484 5.720154 42.521326 29.456697 69.546871 -32.206213 0.000000 0.000000 0.000000 
-1.129195 86.348785 8.282845 0.000000 0.000000 0.000000 32.008500 -21.877526 7.146891 -90.401665 1.811120 22.258854 93.549590 5.043672 -4.428722 16.480094 -4.928764 1.151037 0.000000 0.000000 0.000000 32.008500 -21.877526 7.146891 -44.543669 4.874505 2.589379 47.103833 3.351490 0.172949 -15.491455 -5.054810 3.626615 0.000000 0.000000 0.000000 32.008500 -21.877526 7.146891 -0.000001 -0.000001 0.000001 13.547510 4.190400 -4.486100 4.946177 0.681146 -1.790055 0.000000 0.000000 0.000000 -10.657559 0.747526 3.502207 -0.280921 1.742157 -1.456767 0.000000 0.000000 0.000000 -10.657559 0.747526 3.502207 1.850596 -1.530462 12.872938 -74.590242 15.606158 -37.843373 -144.943622 -87.295569 -147.420098 0.000000 0.000000 0.000000 -10.657559 0.747526 3.502207 4.599370 20.091985 7.394492 -22.228622 2.483215 40.725898 73.013916 78.448752 -77.195795 0.000000 0.000000 0.000000 
-1.558805 86.938538 15.001425 0.000000 0.000000 0.000000 30.055653 -20.496406 6.828419 -92.738109 1.261453 21.394225 89.299348 5.429591 -3.975637 15.405736 -4.948540 -0.620435 0.000000 0.000000 0.000000 30.055653 -20.496406 6.828419 -36.477568 4.830735 -0.437174 43.741915 2.570711 -0.110263 -12.030328 -8.367014 7.447649 0.000000 0.000000 0.000000 30.055653 -20.496406 6.828419 0.000000 0.000002 -0.000001 15.524487 4.740737 -6.737135 4.029726 1.227236 -0.599440 0.000000 0.000000 0.000000 -10.285320 0.762049 3.923218 -0.636378 1.542009 -1.261101 0.000000 0.000000 0.000000 -10.285320 0.762049 3.923218 1.718139 -1.109382 11.529364 -73.265486 13.679102 -35.280540 149.354025 -84.574469 147.519915 0.000000 0.000000 0.000000 -10.285320 0.762049 3.923218 4.280013 20.150723 5.717933 -22.945326 2.376922 38.931477 122.509797 76.439803 -127.618219 0.000000 0.000000 0.000000 
-2.033645 87.484215 21.591784 0.000000 0.000000 0.000000 28.089691 -19.116356 6.605021 -93.296204 1.502146 20.338273 83.153155 6.174604 -3.526655 14.143121 -4.898487 -2.386180 0.000000 0.000000 0.000000 28.089691 -19.116356 6.605021 -27.734036 4.577013 -3.170368 38.469534 1.455061 -0.365603 -6.744763 -10.895583 11.297032 0.000000 0.000000 0.000000 28.089691 -19.116356 6.605021 0.000000 0.000001 0.000000 17.599243 5.378568 -9.140634 3.077284 1.862033 0.679607 0.000000 0.000000 0.000000 -9.831927 0.832859 4.395545 -1.018725 1.277185 -1.093611 0.000000 0.000000 0.000000 -9.831927 0.832859 4.395545 1.645538 -1.000237 9.830194 -71.214496 12.734331 -32.673586 152.442869 -81.794719 151.117116 0.000000 0.000000 0.000000 -9.831927 0.832859 4.395545 3.982598 19.709896 3.730237 -24.454306 4.678998 37.090516 140.273480 71.780466 -145.773408 0.000000 0.000000 0.000000 
-2.547273 87.953682 27.994280 0.000000 0.000000 0.000000 26.131622 -17.765150 6.452638 -91.763346 2.524428 19.046167 75.347867 7.198447 -3.014984 12.737814 -4.791054 -3.984107 0.000000 0.000000 0.000000 26.131622 -17.765150 6.452638 -19.268239 4.429992 -5.782242 32.424363 -0.210547 -0.540234 0.643093 -11.868712 15.627946 0.000000 0.000000 0.000000 26.131622 -17.765150 6.452638 0.000002 0.000001 -0.000000 19.765176 6.084641 -11.556943 2.102507 2.546435 1.965313 0.000000 0.000000 0.000000 -9.313795 0.947434 4.855494 -1.413049 0.959584 -0.947409 0.000000 0.000000 0.000000 -9.313795 0.947434 4.855494 1.575020 -1.138139 7.901663 -68.670251 12.567410 -29.970737 143.981713 -77.688484 143.278996 0.000000 0.000000 0.000000 -9.313795 0.947434 4.855494 3.699680 18.680748 1.234709 -25.214260 8.862766 35.909323 144.796377 69.393096 -150.356793 0.000000 0.000000 0.000000 
-3.140471 88.175385 34.115513 0.000000 0.000000 0.000000 24.199775 -16.446711 6.413977 -88.518425 4.051062 17.505164 66.754376 8.261689 -2.393550 11.380582 -4.666437 -5.343323 0.000000 0.000000 0.000000 24.199775 -16.446711 6.413977 -13.111647 5.218053 -8.469309 27.832445 -2.662840 -0.565647 11.575052 -9.438683 19.948981 0.000000 0.000000 0.000000 24.199775 -16.446711 6.413977 0.000001 0.000000 0.000000 22.004336 6.793601 -13.904647 1.125542 3.238613 3.176634 0.000000 0.000000 0.000000 -8.745391 1.083686 5.241046 -1.812910 0.603076 -0.814970 0.000000 0.000000 0.000000 -8.745391 1.083686 5.241046 1.502555 -1.658579 5.692878 -65.196567 13.677519 -27.497966 141.057777 -73.129183 141.016222 0.000000 0.000000 0.000000 -8.745391 1.083686 5.241046 3.365106 17.561309 -1.142849 -25.461904 13.320883 34.992145 138.078011 67.842247 -143.876241 0.000000 0.000000 0.000000 
-3.743207 88.256615 39.958961 0.000000 0.000000 0.000000 22.314419 -15.175593 6.439767 -83.947717 6.109690 15.870561 58.233756 8.941279 -1.632896 10.147966 -4.614285 -6.401345 0.000000 0.000000 0.000000 22.314419 -15.175593 6.439767 -7.176300 5.701648 -10.873735 23.224955 -4.830535 -0.521170 22.031670 -5.736403 22.052895 0.000000 0.000000 0.000000 22.314419 -15.175593 6.439767 0.000001 -0.000001 0.000001 24.267240 7.488316 -16.021594 0.173425 3.894097 4.232963 0.000000 0.000000 0.000000 -8.139749 1.210103 5.492460 -2.203602 0.222426 -0.683055 0.000000 0.000000 0.000000 -8.139749 1.210103 5.492460 1.361032 -2.605524 3.314331 -60.515865 16.225275 -25.721275 135.143981 -66.378347 136.245595 0.000000 0.000000 0.000000 -8.139749 1.210103 5.492460 2.965229 16.086091 -3.315617 -24.438361 17.650204 34.902557 140.099201 71.704671 -145.080840 0.000000 0.000000 0.000000 
-4.382874 88.275047 45.315338 0.000000 0.000000 0.000000 20.492284 -13.929224 6.560234 -78.688287 8.751105 14.313199 52.493545 8.409471 -0.787060 5.875646 -4.582143 -7.568825 0.000000 0.000000 0.000000 20.492284 -13.929224 6.560234 -1.314725 7.840622 -12.725479 18.988583 -8.072029 -0.581471 31.964182 -1.635117 23.758101 0.000000 0.000000 0.000000 20.492284 -13.929224 6.560234 0.000000 0.000001 0.000000 26.503267 8.086384 -17.802041 -0.720338 4.466177 5.053841 0.000000 0.000000 0.000000 -7.508634 1.286651 5.553520 -2.578300 -0.166886 -0.537966 0.000000 0.000000 0.000000 -7.508634 1.286651 5.553520 1.097142 -3.882422 0.977578 -54.440999 20.032726 -25.317631 136.666485 -61.612213 138.630478 0.000000 0.000000 0.000000 -7.508634 1.286651 5.553520 2.589792 15.711979 -3.928844 -22.271736 19.814539 34.312743 130.945477 75.138925 -135.484848 0.000000 0.000000 0.000000 
-4.960536 88.114395 50.349808 0.000000 0.000000 0.000000 18.755336 -12.722813 6.690075 -73.375097 11.553492 12.781383 48.508963 7.154424 0.111237 0.435835 -4.484485 -8.822881 0.000000 0.000000 0.000000 18.755336 -12.722813 6.690075 2.022499 10.966682 -13.664256 19.235891 -10.708956 -0.506399 39.700584 2.672358 24.369656 0.000000 0.000000 0.000000 18.755336 -12.722813 6.690075 0.000000 -0.000001 0.000000 28.630686 8.598034 -19.048865 -1.519175 4.905838 5.559154 0.000000 0.000000 0.000000 -6.863620 1.266538 5.371838 -2.922672 -0.549277 -0.361664 0.000000 0.000000 0.000000 -6.863620 1.266538 5.371838 0.759123 -5.033631 -0.900612 -46.886366 24.184098 -27.289596 137.352659 -57.102058 140.325758 0.000000 0.000000 0.000000 -6.863620 1.266538 5.371838 2.064619 19.145399 -0.105393 -18.845785 15.314604 31.325805 112.202653 78.942247 -116.073164 0.000000 0.000000 0.000000 
-5.275648 87.999352 55.525375 0.000000 0.000000 0.000000 17.125934 -11.569006 6.671684 -67.854931 14.274925 10.985995 45.215125 5.785900 1.196429 -3.705281 -4.356833 -9.591268 0.000000 0.000000 0.000000 17.125934 -11.569006 6.671684 3.852514 12.996282 -13.478089 22.243232 -12.729845 -0.348076 43.798769 5.639962 22.760975 0.000000 0.000000 0.000000 17.125934 -11.569006 6.671684 0.000002 -0.000001 0.000000 30.555671 9.076579 -19.508535 -2.184629 5.161221 5.669223 0.000000 0.000000 0.000000 -6.218515 1.098254 4.898331 -3.234292 -0.907903 -0.135493 0.000000 0.000000 0.000000 -6.218515 1.098254 4.898331 0.379920 -5.850951 -2.705084 -38.636918 27.454423 -31.052195 135.950831 -53.185611 139.990410 0.000000 0.000000 0.000000 -6.218515 1.098254 4.898331 0.949143 20.981528 6.038055 -15.065471 11.729574 27.919578 85.630812 80.867848 -89.195775 0.000000 0.000000 0.000000 
-5.163936 88.099068 61.400475 0.000000 0.000000 0.000000 15.580341 -10.502068 6.212128 -61.650469 16.732570 8.672523 41.200073 4.642585 2.621722 -4.194569 -4.489426 -9.057246 0.000000 0.000000 0.000000 15.580341 -10.502068 6.212128 2.923975 12.963754 -12.108442 29.743281 -13.842251 0.067541 41.868742 6.501902 18.990984 0.000000 0.000000 0.000000 15.580341 -10.502068 6.212128 0.000000 0.000000 -0.000001 32.227127 9.580145 -18.356069 -2.669990 5.143535 5.015702 0.000000 0.000000 0.000000 -5.566150 0.686414 3.800969 -3.498839 -1.224989 0.255044 0.000000 0.000000 0.000000 -5.566150 0.686414 3.800969 -0.004812 -6.052266 -4.657574 -30.554237 29.050506 -35.585627 132.991542 -49.805668 138.132912 0.000000 0.000000 0.000000 -5.566150 0.686414 3.800969 -0.565073 22.650664 11.650179 -10.734372 7.165118 25.745479 60.815144 79.186625 -64.298971 0.000000 0.000000 0.000000 
-4.794122 88.236610 67.780548 0.000000 0.000000 0.000000 14.145354 -9.449904 5.417636 -55.033030 18.572408 6.154318 37.125828 3.508050 3.982168 -2.399008 -4.757671 -7.404063 0.000000 0.000000 0.000000 14.145354 -9.449904 5.417636 0.910336 11.571943 -10.599472 39.265173 -14.866682 0.520739 35.368072 6.509117 15.286928 0.000000 0.000000 0.000000 14.145354 -9.449904 5.417636 0.000000 0.000001 0.000000 33.593917 9.964331 -15.741528 -2.967667 4.805182 3.647730 0.000000 0.000000 0.000000 -4.962768 -0.012777 2.155431 -3.702393 -1.488231 0.796727 0.000000 0.000000 0.000000 -4.962768 -0.012777 2.155431 -0.323053 -5.005318 -7.112034 -22.657612 26.045417 -41.408227 130.747484 -48.692815 136.309949 0.000000 0.000000 0.000000 -4.962768 -0.012777 2.155431 -1.595678 22.118376 16.285751 -5.837637 3.562914 25.550457 51.546673 73.739214 -54.935857 0.000000 0.000000 0.000000 
